# xmcd CD database file
#
# Track frame offsets:
#	150
#	42599
#	76904
#	116598
#	162370
#	198916
#	245320
#
# Disc length: 3824 seconds
#
# Revision: 1
# Processed by: cddbd v1.5.2PL0 Copyright (c) Steve Scherf et al.
# Submitted via: CDex 1.51
#
DISCID=530eee07
DTITLE=Jimmy Greene - Gifts And Givers
DYEAR=2007
DGENRE=Jazz
TTITLE0=Mr. McLean
TTITLE1=Greene Blues
TTITLE2=Forever
TTITLE3=Magnolia Triangle
TTITLE4=26-2
TTITLE5=Blue Bossa/Boudreaux
TTITLE6=The Eternal Triangle
EXTD=YEAR: 2007
EXTT0=
EXTT1=
EXTT2=
EXTT3=
EXTT4=
EXTT5=
EXTT6=
PLAYORDER=
